<svg width="23" height="22" viewBox="0 0 23 22" fill="none" xmlns="http://www.w3.org/2000/svg">
<path d="M12.5 21H4.5C2.5 21 1.5 20 1.5 18V10C1.5 8 2.5 7 4.5 7M12.5 21C10.5 21 9.5 20 9.5 18M12.5 21H18.5C20.5 21 21.5 20 21.5 18V4C21.5 2 20.5 1 18.5 1H12.5C10.5 1 9.5 2 9.5 4M4.5 7H9.5M4.5 7V5C4.5 3.9 5.4 3 6.5 3H9.60999C9.52999 3.3 9.5 3.63 9.5 4M9.5 7V18M9.5 7V4M9.5 18V4M13.5 7V12M17.5 7V12M5.5 12V16M16.5 16H14.5C13.95 16 13.5 16.45 13.5 17V21H17.5V17C17.5 16.45 17.05 16 16.5 16Z" stroke="#E0E6EB" stroke-width="1.5" stroke-miterlimit="10" stroke-linecap="round" stroke-linejoin="round"/>
</svg>
