<svg width="24" height="22" viewBox="0 0 24 22" fill="none" xmlns="http://www.w3.org/2000/svg">
<path d="M22.5 2.00005C21.5424 2.67552 20.4821 3.19216 19.36 3.53005C18.7577 2.83756 17.9573 2.34674 17.067 2.12397C16.1767 1.90121 15.2395 1.95724 14.3821 2.2845C13.5247 2.61176 12.7884 3.19445 12.273 3.95376C11.7575 4.71308 11.4877 5.61238 11.5 6.53005V7.53005C9.74263 7.57561 8.00127 7.18586 6.43101 6.39549C4.86074 5.60513 3.51032 4.43868 2.5 3.00005C2.5 3.00005 -1.5 12 7.5 16C5.44053 17.398 2.98716 18.099 0.5 18C9.5 23 20.5 18 20.5 6.50005C20.4991 6.2215 20.4723 5.94364 20.42 5.67005C21.4406 4.66354 22.1608 3.39276 22.5 2.00005Z" stroke="#E0E6EB" stroke-width="2.5" stroke-linecap="round" stroke-linejoin="round"/>
</svg>
